# xmcd
#
# Track frame offsets:
#	150
#	16120
#	34278
#	50450
#	67530
#	80610
#	97294
#	113925
#
# Disc length: 1780 seconds
#
# Revision: 1
# Processed by: cddbd v1.5PL3 Copyright (c) Steve Scherf et al.
# Submitted via: audiograbber 1.83.01
#
DISCID=6006f208
DTITLE=SATS - Core #7 Natural Blues Vår 2004
DYEAR=2004
DGENRE=Pop
TTITLE0=Moby - Natural Blues
TTITLE1=Alicia Keyes - Karma
TTITLE2=Michael Jackson - This Time Around
TTITLE3=Rob N Raz - Hooked On A Feeling
TTITLE4=Maroon - Harder To Breath
TTITLE5=Atomic Kitten - If You Come To Me
TTITLE6=Anastacia - Left Outside Alone
TTITLE7=Luther Vandross - Dance With My Father Again
EXTD=Endast internt SATS
EXTT0=
EXTT1=
EXTT2=
EXTT3=
EXTT4=
EXTT5=
EXTT6=
EXTT7=
PLAYORDER=
